<svg xmlns="http://www.w3.org/2000/svg" version="1.1" xmlns:xlink="http://www.w3.org/1999/xlink" width="512" height="512" x="0" y="0" viewBox="0 0 512.001 512.001" style="enable-background:new 0 0 512 512" xml:space="preserve"><g><path d="M483.707 161.006h-54.434c-15.626 0-28.294 12.667-28.294 28.294v46.703h-30.31c-.259-3.908-3.501-7-7.475-7h-11.651c-14.754 0-28.587-6.709-37.951-18.407-8.575-10.711-19.718-18.627-32.206-23.168-4.856-1.766-9.978 1.919-9.978 7.086v.022a7.5 7.5 0 0 0 4.938 7.042c9.898 3.619 18.733 9.896 25.536 18.392 12.226 15.272 30.327 24.032 49.661 24.032h4.152V269h-4.152c-19.334 0-37.435 8.76-49.66 24.032-11.177 13.959-27.827 21.966-45.684 21.966-17.857 0-34.507-8.007-45.683-21.966C198.29 277.759 180.19 269 160.857 269h-4.152v-24.999h4.152c19.333 0 37.434-8.76 49.661-24.032 7.146-8.927 16.533-15.412 27.042-18.932 3.084-1.033 5.191-3.88 5.191-7.133 0-5.104-4.996-8.75-9.839-7.139-13.255 4.411-25.096 12.578-34.102 23.829C189.445 222.292 175.612 229 160.859 229h-11.651c-3.973 0-7.216 3.092-7.475 7h-30.711v-46.703c0-15.626-12.667-28.294-28.294-28.294H28.294C12.667 161.006 0 173.673 0 189.3v133.404c0 15.626 12.667 28.294 28.294 28.294h54.433c15.626 0 28.294-12.667 28.294-28.294v-45.703h30.711c.259 3.908 3.502 7 7.475 7h11.651c14.753 0 28.587 6.709 37.951 18.406 14.037 17.535 34.956 27.592 57.392 27.592s43.354-10.057 57.393-27.592C322.958 290.709 336.79 284 351.544 284h11.651c3.974 0 7.216-3.092 7.475-7h30.31v45.703c0 15.626 12.667 28.294 28.294 28.294h54.434c15.626 0 28.294-12.667 28.294-28.294V189.3c-.002-15.627-12.669-28.294-28.295-28.294zM21.711 334.238c-4.003-2.294-6.712-6.6-6.712-11.534V189.3c0-4.935 2.709-9.242 6.712-11.534v156.472zm51.998.76H36.71v-28.832l11.917 11.916a7.478 7.478 0 0 0 5.303 2.197 7.474 7.474 0 0 0 5.303-2.197l14.476-14.476v31.392zm0-52.605L53.93 302.172l-17.22-17.219v-25.786l11.917 11.916a7.478 7.478 0 0 0 5.303 2.197 7.474 7.474 0 0 0 5.303-2.197l14.476-14.476v25.786zm0-46.998-19.779 19.78-17.22-17.22v-25.786l11.917 11.916a7.478 7.478 0 0 0 5.303 2.197 7.474 7.474 0 0 0 5.303-2.197l14.476-14.476v25.786zm0-46.997L53.93 208.177l-17.22-17.22v-14.953h36.998v12.394zm22.312 134.306c0 5.178-2.982 9.663-7.313 11.856V177.443c4.331 2.194 7.313 6.679 7.313 11.856v133.405zm45.685-60.703h-29.999v-11h29.999v11zm258.988 0h-29.999v-11h29.999v11zm21.999 72.238c-4.004-2.293-6.714-6.601-6.714-11.536V189.298c0-4.936 2.71-9.243 6.714-11.536v156.477zm14.999-158.234h36.998v12.392l-19.779 19.78-17.219-17.219v-14.953zm37 158.993h-36.999v-28.832l11.915 11.915a7.482 7.482 0 0 0 5.304 2.197 7.478 7.478 0 0 0 5.304-2.197l14.476-14.476v31.393zm0-52.605-19.78 19.78-17.219-17.219v-25.785l11.915 11.915a7.482 7.482 0 0 0 5.304 2.197 7.478 7.478 0 0 0 5.304-2.197l14.476-14.476v25.785zm0-46.998-19.78 19.78-17.219-17.219v-25.785l11.915 11.915a7.482 7.482 0 0 0 5.304 2.197 7.478 7.478 0 0 0 5.304-2.197l14.476-14.476v25.785zm22.309 87.309c0 5.178-2.981 9.662-7.312 11.855V177.443c4.33 2.194 7.312 6.679 7.312 11.855v133.406z"  opacity="1" data-original="#fff"/><path d="M256.201 209.004c-26.19 0-47.498 21.308-47.498 47.498S230.011 304 256.201 304s47.498-21.308 47.498-47.498c-.001-26.19-21.309-47.498-47.498-47.498zm0 79.996c-17.919 0-32.499-14.579-32.499-32.499 0-17.919 14.579-32.499 32.499-32.499s32.499 14.579 32.499 32.499S274.121 289 256.201 289z" opacity="1" data-original="#fff"/></g></svg>