<svg xmlns="http://www.w3.org/2000/svg" version="1.1" xmlns:xlink="http://www.w3.org/1999/xlink" width="512" height="512" x="0" y="0" viewBox="0 0 512 512" style="enable-background:new 0 0 512 512" xml:space="preserve"><g><path d="M512 153.571c0-15.125-12.305-27.431-27.43-27.431h-8.323v-15.724c0-15.809-12.049-28.857-27.447-30.444V66.78c0-15.407-12.534-27.941-27.94-27.941h-8.194c-15.391 0-27.913 12.534-27.913 27.941v13.03h-37.006l-7.373-23.346c-3.93-12.481-12.258-15.101-18.552-15.101H190.178c-6.294 0-14.623 2.62-18.548 15.09l-7.4 23.357h-36.984V66.78c0-15.407-12.535-27.941-27.941-27.941H91.14c-15.406 0-27.94 12.534-27.94 27.941v13.193c-15.397 1.586-27.447 14.634-27.447 30.444v15.724h-8.351C12.292 126.14 0 138.446 0 153.571c0 14.782 11.767 26.86 26.426 27.378v207.55c-10.969 1.799-19.366 11.34-19.366 22.81v47.578c0 7.871 6.403 14.274 14.274 14.274H486.98c7.87 0 14.274-6.403 14.274-14.274v-47.578c0-10.146-6.572-18.78-15.68-21.885V180.948c14.661-.531 26.426-12.604 26.426-27.377zM399.636 66.78c0-7.201 5.845-13.059 13.031-13.059h8.194c7.2 0 13.058 5.858 13.058 13.059v13.03h-34.282V66.78zM185.82 60.934c1.477-4.689 2.812-4.689 4.358-4.689h131.644c1.546 0 2.881 0 4.359 4.695l5.96 18.871h-152.3zM78.082 66.78c0-7.201 5.858-13.059 13.058-13.059h8.166c7.201 0 13.059 5.858 13.059 13.059v13.03H78.082zm-27.447 43.636c0-8.67 7.054-15.724 15.724-15.724h379.283c8.671 0 15.724 7.054 15.724 15.724v15.724H50.635zm435.737 347.863H21.943v-46.97c0-4.543 3.695-8.238 8.238-8.238h14.121c4.559 0 8.267 3.696 8.267 8.238v14.461a7.44 7.44 0 0 0 7.441 7.441h180.837a7.441 7.441 0 0 0 0-14.882H67.45v-7.02c0-12.749-10.385-23.121-23.149-23.121h-2.993V180.973h199.538a7.441 7.441 0 0 0 0-14.882H27.402c-6.903 0-12.52-5.616-12.52-12.52 0-6.919 5.617-12.549 12.52-12.549H484.57c6.919 0 12.548 5.629 12.548 12.549 0 6.904-5.629 12.52-12.548 12.52H275.464a7.441 7.441 0 0 0 0 14.882h195.228v207.215h-6.707c-12.749 0-23.121 10.372-23.121 23.121v7.02h-165.4a7.441 7.441 0 0 0 0 14.882h172.842a7.441 7.441 0 0 0 7.441-7.441v-14.461c0-4.543 3.695-8.238 8.238-8.238h14.148c4.543 0 8.238 3.696 8.238 8.238v46.97z" opacity="1" data-original="#fff"/><path d="M313.92 286.498c-2.95-5.97-10.454-5.97-13.279-5.97h-33.624l11.565-47.452c1.019-4.19 3.14-12.909-3.772-16.202-7.199-3.432-13.097 4.311-17.389 9.948l-55.01 71.825c-2.765 3.617-7.395 9.671-4.344 15.845 2.972 6.011 10.385 6.011 13.175 6.011h33.588l-11.534 47.444c-1.77 7.372-.314 12.235 4.329 14.453 1.284.613 2.542.876 3.761.876 6.105 0 11.19-6.612 13.078-9.069l54.979-71.851c2.98-3.894 7.481-9.78 4.477-15.858zm-61.536 65.941 7.118-29.283c.843-3.468 1.58-8.566-1.731-12.781-3.349-4.262-8.659-4.754-12.361-4.754h-29.594l43.663-57.01-7.491 30.733c-.67 2.747-1.917 7.862 1.289 11.943 3.238 4.123 8.48 4.123 11.611 4.123h31.132zM383.859 265.582h8.976v9.004a7.441 7.441 0 0 0 14.882 0v-9.004h9.003a7.441 7.441 0 0 0 0-14.882h-9.003v-9.004a7.441 7.441 0 0 0-14.882 0v9.004h-8.976a7.441 7.441 0 0 0 0 14.882zM117.991 250.7H89.665a7.441 7.441 0 0 0 0 14.882h28.326a7.441 7.441 0 0 0 0-14.882z" opacity="1" data-original="#fff"/></g></svg>