<svg xmlns="http://www.w3.org/2000/svg" version="1.1" xmlns:xlink="http://www.w3.org/1999/xlink" width="512" height="512" x="0" y="0" viewBox="0 0 512 512" style="enable-background:new 0 0 512 512" xml:space="preserve"><g><path d="M462 118.5h-60v-20h10.5c5.523 0 9.5-4.602 9.5-10.124v-40c0-5.522-3.977-9.876-9.5-9.876h-125c-5.523 0-10.5 4.353-10.5 9.876v40c0 5.522 4.977 10.124 10.5 10.124h9.5v20H50c-27.57 0-50 22.531-50 49.876v153C0 349.171 22.43 371.5 50 371.5h95.54c9.376 0 17.978 4.255 23.597 11.424l55.983 71.404c9.445 12.05 24.151 19.172 39.34 19.172H462c27.57 0 50-22.146 50-49.716v-42c0-5.511-4.49-10-10-10s-10 4.489-10 10v42c0 16.542-13.458 29.716-30 29.716H264.46c-9.093 0-17.915-4.187-23.597-11.436l-55.983-71.546c-9.438-12.041-23.777-19.018-39.34-19.018H50c-16.542 0-30-14-30-30h30c5.523 0 10-4.602 10-10.124v-40.703c8.758-2.267 14.23-7.582 18.485-11.734 4.952-4.832 7.595-7.155 13.505-7.155 5.917 0 8.562 2.323 13.517 7.158 5.555 5.419 13.164 12.842 27.483 12.842s21.928-7.423 27.483-12.842c4.955-4.835 7.599-7.158 13.517-7.158s8.562 2.323 13.517 7.158c5.555 5.419 13.164 12.842 27.483 12.842s21.928-7.423 27.483-12.842c4.955-4.835 7.599-7.158 13.517-7.158s8.562 2.323 13.517 7.158c5.555 5.419 13.164 12.842 27.483 12.842s21.928-7.423 27.483-12.842c4.955-4.835 7.599-7.158 13.517-7.158s8.562 2.323 13.517 7.158c5.555 5.419 13.164 12.842 27.483 12.842s21.928-7.423 27.483-12.842c4.955-4.835 7.599-7.158 13.517-7.158s8.562 2.323 13.517 7.158c5.555 5.419 13.164 12.842 27.483 12.842 14.325 0 21.936-7.423 27.493-12.843 1.298-1.266 2.436-2.355 3.517-3.28v36.123c0 5.51 4.49 10 10 10s10-4.49 10-10V168.376c0-27.345-22.43-49.876-50-49.876zm-165-60h105v20H297zm-257 243H20v-100h20zm434.518-56.876c-4.958 4.836-7.604 7.16-13.528 7.16-5.917 0-8.562-2.323-13.517-7.158-5.555-5.419-13.164-12.842-27.483-12.842s-21.928 7.423-27.483 12.842c-4.955 4.835-7.599 7.158-13.517 7.158s-8.562-2.323-13.517-7.158c-5.555-5.419-13.164-12.842-27.483-12.842s-21.928 7.423-27.483 12.842c-4.955 4.835-7.599 7.158-13.517 7.158s-8.562-2.323-13.517-7.158c-5.555-5.419-13.164-12.842-27.483-12.842s-21.928 7.423-27.483 12.842c-4.955 4.835-7.599 7.158-13.517 7.158s-8.562-2.323-13.517-7.158c-5.555-5.419-13.164-12.842-27.483-12.842s-21.928 7.423-27.483 12.842c-4.955 4.835-7.599 7.158-13.517 7.158s-8.562-2.323-13.517-7.158c-5.555-5.419-13.164-12.842-27.483-12.842-14.314 0-21.92 7.422-27.474 12.841-1.703 1.662-3.133 3.021-4.517 4.097v-57.346c0-5.522-4.477-9.876-10-9.876H20v-13.124c0-16.317 13.458-29.876 30-29.876h247v52.879c0 5.522 4.477 10 10 10s10-4.478 10-10V98.5h65v92.879c0 5.522 4.477 10 10 10s10-4.478 10-10V138.5h60c16.542 0 30 13.558 30 29.876v64.792c-8.176 2.4-13.391 7.466-17.482 11.456z" fill="#000000" opacity="1" data-original="#000000"/><circle cx="502" cy="336.784" r="10" fill="#000000" opacity="1" data-original="#000000"/></g></svg>